<?xml version="1.0" encoding="UTF-8" standalone="no"?>
<!DOCTYPE svg PUBLIC "-//W3C//DTD SVG 1.1//EN"
 "http://www.w3.org/Graphics/SVG/1.1/DTD/svg11.dtd">
<!-- Generated by graphviz version 2.43.0 (0)
 -->
<!-- Title: snakemake_dag Pages: 1 -->
<svg width="295pt" height="548pt"
 viewBox="0.00 0.00 295.00 548.00" xmlns="http://www.w3.org/2000/svg" xmlns:xlink="http://www.w3.org/1999/xlink">
<g id="graph0" class="graph" transform="scale(1 1) rotate(0) translate(4 544)">
<title>snakemake_dag</title>
<polygon fill="white" stroke="transparent" points="-4,4 -4,-544 291,-544 291,4 -4,4"/>
<!-- 0 -->
<g id="node1" class="node">
<title>0</title>
<path fill="none" stroke="#5682d8" stroke-width="2" stroke-dasharray="5,2" d="M211.5,-36C211.5,-36 181.5,-36 181.5,-36 175.5,-36 169.5,-30 169.5,-24 169.5,-24 169.5,-12 169.5,-12 169.5,-6 175.5,0 181.5,0 181.5,0 211.5,0 211.5,0 217.5,0 223.5,-6 223.5,-12 223.5,-12 223.5,-24 223.5,-24 223.5,-30 217.5,-36 211.5,-36"/>
<text text-anchor="middle" x="196.5" y="-15.5" font-family="sans" font-size="10.00">all</text>
</g>
<!-- 1 -->
<g id="node2" class="node">
<title>1</title>
<path fill="none" stroke="#56a9d8" stroke-width="2" stroke-dasharray="5,2" d="M233.5,-108C233.5,-108 159.5,-108 159.5,-108 153.5,-108 147.5,-102 147.5,-96 147.5,-96 147.5,-84 147.5,-84 147.5,-78 153.5,-72 159.5,-72 159.5,-72 233.5,-72 233.5,-72 239.5,-72 245.5,-78 245.5,-84 245.5,-84 245.5,-96 245.5,-96 245.5,-102 239.5,-108 233.5,-108"/>
<text text-anchor="middle" x="196.5" y="-87.5" font-family="sans" font-size="10.00">callFilterVariants</text>
</g>
<!-- 1&#45;&gt;0 -->
<g id="edge1" class="edge">
<title>1&#45;&gt;0</title>
<path fill="none" stroke="grey" stroke-width="2" d="M196.5,-71.7C196.5,-63.98 196.5,-54.71 196.5,-46.11"/>
<polygon fill="grey" stroke="grey" stroke-width="2" points="200,-46.1 196.5,-36.1 193,-46.1 200,-46.1"/>
</g>
<!-- 2 -->
<g id="node3" class="node">
<title>2</title>
<path fill="none" stroke="#56d8a9" stroke-width="2" stroke-dasharray="5,2" d="M227,-180C227,-180 166,-180 166,-180 160,-180 154,-174 154,-168 154,-168 154,-156 154,-156 154,-150 160,-144 166,-144 166,-144 227,-144 227,-144 233,-144 239,-150 239,-156 239,-156 239,-168 239,-168 239,-174 233,-180 227,-180"/>
<text text-anchor="middle" x="196.5" y="-159.5" font-family="sans" font-size="10.00">readCoverage</text>
</g>
<!-- 2&#45;&gt;1 -->
<g id="edge2" class="edge">
<title>2&#45;&gt;1</title>
<path fill="none" stroke="grey" stroke-width="2" d="M196.5,-143.7C196.5,-135.98 196.5,-126.71 196.5,-118.11"/>
<polygon fill="grey" stroke="grey" stroke-width="2" points="200,-118.1 196.5,-108.1 193,-118.1 200,-118.1"/>
</g>
<!-- 3 -->
<g id="node4" class="node">
<title>3</title>
<path fill="none" stroke="#56d882" stroke-width="2" stroke-dasharray="5,2" d="M258.5,-396C258.5,-396 194.5,-396 194.5,-396 188.5,-396 182.5,-390 182.5,-384 182.5,-384 182.5,-372 182.5,-372 182.5,-366 188.5,-360 194.5,-360 194.5,-360 258.5,-360 258.5,-360 264.5,-360 270.5,-366 270.5,-372 270.5,-372 270.5,-384 270.5,-384 270.5,-390 264.5,-396 258.5,-396"/>
<text text-anchor="middle" x="226.5" y="-375.5" font-family="sans" font-size="10.00">unzip_genome</text>
</g>
<!-- 3&#45;&gt;2 -->
<g id="edge3" class="edge">
<title>3&#45;&gt;2</title>
<path fill="none" stroke="grey" stroke-width="2" d="M224.94,-359.54C222.19,-329.91 215.94,-267.95 207.5,-216 206.12,-207.52 204.33,-198.34 202.59,-190.04"/>
<polygon fill="grey" stroke="grey" stroke-width="2" points="205.98,-189.15 200.45,-180.12 199.13,-190.63 205.98,-189.15"/>
</g>
<!-- 6 -->
<g id="node7" class="node">
<title>6</title>
<path fill="none" stroke="#56d8d8" stroke-width="2" stroke-dasharray="5,2" d="M184,-324C184,-324 149,-324 149,-324 143,-324 137,-318 137,-312 137,-312 137,-300 137,-300 137,-294 143,-288 149,-288 149,-288 184,-288 184,-288 190,-288 196,-294 196,-300 196,-300 196,-312 196,-312 196,-318 190,-324 184,-324"/>
<text text-anchor="middle" x="166.5" y="-303.5" font-family="sans" font-size="10.00">mapping</text>
</g>
<!-- 3&#45;&gt;6 -->
<g id="edge7" class="edge">
<title>3&#45;&gt;6</title>
<path fill="none" stroke="grey" stroke-width="2" d="M211.67,-359.7C204.48,-351.3 195.7,-341.07 187.81,-331.86"/>
<polygon fill="grey" stroke="grey" stroke-width="2" points="190.33,-329.42 181.16,-324.1 185.01,-333.97 190.33,-329.42"/>
</g>
<!-- 4 -->
<g id="node5" class="node">
<title>4</title>
<path fill="none" stroke="#80d856" stroke-width="2" stroke-dasharray="5,2" d="M275,-468C275,-468 190,-468 190,-468 184,-468 178,-462 178,-456 178,-456 178,-444 178,-444 178,-438 184,-432 190,-432 190,-432 275,-432 275,-432 281,-432 287,-438 287,-444 287,-444 287,-456 287,-456 287,-462 281,-468 275,-468"/>
<text text-anchor="middle" x="232.5" y="-447.5" font-family="sans" font-size="10.00">download_genome</text>
</g>
<!-- 4&#45;&gt;3 -->
<g id="edge5" class="edge">
<title>4&#45;&gt;3</title>
<path fill="none" stroke="grey" stroke-width="2" d="M231.02,-431.7C230.36,-423.98 229.56,-414.71 228.82,-406.11"/>
<polygon fill="grey" stroke="grey" stroke-width="2" points="232.31,-405.77 227.97,-396.1 225.33,-406.37 232.31,-405.77"/>
</g>
<!-- 5 -->
<g id="node6" class="node">
<title>5</title>
<path fill="none" stroke="#59d856" stroke-width="2" stroke-dasharray="5,2" d="M186,-252C186,-252 147,-252 147,-252 141,-252 135,-246 135,-240 135,-240 135,-228 135,-228 135,-222 141,-216 147,-216 147,-216 186,-216 186,-216 192,-216 198,-222 198,-228 198,-228 198,-240 198,-240 198,-246 192,-252 186,-252"/>
<text text-anchor="middle" x="166.5" y="-231.5" font-family="sans" font-size="10.00">bam_Sort</text>
</g>
<!-- 5&#45;&gt;2 -->
<g id="edge4" class="edge">
<title>5&#45;&gt;2</title>
<path fill="none" stroke="grey" stroke-width="2" d="M173.92,-215.7C177.29,-207.81 181.37,-198.3 185.12,-189.55"/>
<polygon fill="grey" stroke="grey" stroke-width="2" points="188.45,-190.67 189.17,-180.1 182.01,-187.92 188.45,-190.67"/>
</g>
<!-- 6&#45;&gt;5 -->
<g id="edge6" class="edge">
<title>6&#45;&gt;5</title>
<path fill="none" stroke="grey" stroke-width="2" d="M166.5,-287.7C166.5,-279.98 166.5,-270.71 166.5,-262.11"/>
<polygon fill="grey" stroke="grey" stroke-width="2" points="170,-262.1 166.5,-252.1 163,-262.1 170,-262.1"/>
</g>
<!-- 7 -->
<g id="node8" class="node">
<title>7</title>
<path fill="none" stroke="#d85656" stroke-width="2" stroke-dasharray="5,2" d="M146.5,-396C146.5,-396 108.5,-396 108.5,-396 102.5,-396 96.5,-390 96.5,-384 96.5,-384 96.5,-372 96.5,-372 96.5,-366 102.5,-360 108.5,-360 108.5,-360 146.5,-360 146.5,-360 152.5,-360 158.5,-366 158.5,-372 158.5,-372 158.5,-384 158.5,-384 158.5,-390 152.5,-396 146.5,-396"/>
<text text-anchor="middle" x="127.5" y="-375.5" font-family="sans" font-size="10.00">trimming</text>
</g>
<!-- 7&#45;&gt;6 -->
<g id="edge8" class="edge">
<title>7&#45;&gt;6</title>
<path fill="none" stroke="grey" stroke-width="2" d="M137.14,-359.7C141.63,-351.64 147.06,-341.89 152.02,-332.98"/>
<polygon fill="grey" stroke="grey" stroke-width="2" points="155.16,-334.54 156.97,-324.1 149.05,-331.14 155.16,-334.54"/>
</g>
<!-- 8 -->
<g id="node9" class="node">
<title>8</title>
<path fill="none" stroke="#d88556" stroke-width="2" stroke-dasharray="5,2" d="M148,-468C148,-468 83,-468 83,-468 77,-468 71,-462 71,-456 71,-456 71,-444 71,-444 71,-438 77,-432 83,-432 83,-432 148,-432 148,-432 154,-432 160,-438 160,-444 160,-444 160,-456 160,-456 160,-462 154,-468 148,-468"/>
<text text-anchor="middle" x="115.5" y="-453" font-family="sans" font-size="10.00">unzip_reads</text>
<text text-anchor="middle" x="115.5" y="-442" font-family="sans" font-size="10.00">sample: P7741</text>
</g>
<!-- 8&#45;&gt;7 -->
<g id="edge9" class="edge">
<title>8&#45;&gt;7</title>
<path fill="none" stroke="grey" stroke-width="2" d="M118.47,-431.7C119.79,-423.98 121.38,-414.71 122.85,-406.11"/>
<polygon fill="grey" stroke="grey" stroke-width="2" points="126.33,-406.55 124.57,-396.1 119.43,-405.37 126.33,-406.55"/>
</g>
<!-- 9 -->
<g id="node10" class="node">
<title>9</title>
<path fill="none" stroke="#d6d856" stroke-width="2" stroke-dasharray="5,2" d="M95,-540C95,-540 12,-540 12,-540 6,-540 0,-534 0,-528 0,-528 0,-516 0,-516 0,-510 6,-504 12,-504 12,-504 95,-504 95,-504 101,-504 107,-510 107,-516 107,-516 107,-528 107,-528 107,-534 101,-540 95,-540"/>
<text text-anchor="middle" x="53.5" y="-525" font-family="sans" font-size="10.00">download_reads</text>
<text text-anchor="middle" x="53.5" y="-514" font-family="sans" font-size="10.00">sample: P7741_R1</text>
</g>
<!-- 9&#45;&gt;8 -->
<g id="edge10" class="edge">
<title>9&#45;&gt;8</title>
<path fill="none" stroke="grey" stroke-width="2" d="M68.83,-503.7C76.26,-495.3 85.32,-485.07 93.48,-475.86"/>
<polygon fill="grey" stroke="grey" stroke-width="2" points="96.34,-477.91 100.35,-468.1 91.1,-473.27 96.34,-477.91"/>
</g>
<!-- 10 -->
<g id="node11" class="node">
<title>10</title>
<path fill="none" stroke="#d6d856" stroke-width="2" stroke-dasharray="5,2" d="M220,-540C220,-540 137,-540 137,-540 131,-540 125,-534 125,-528 125,-528 125,-516 125,-516 125,-510 131,-504 137,-504 137,-504 220,-504 220,-504 226,-504 232,-510 232,-516 232,-516 232,-528 232,-528 232,-534 226,-540 220,-540"/>
<text text-anchor="middle" x="178.5" y="-525" font-family="sans" font-size="10.00">download_reads</text>
<text text-anchor="middle" x="178.5" y="-514" font-family="sans" font-size="10.00">sample: P7741_R2</text>
</g>
<!-- 10&#45;&gt;8 -->
<g id="edge11" class="edge">
<title>10&#45;&gt;8</title>
<path fill="none" stroke="grey" stroke-width="2" d="M162.93,-503.7C155.3,-495.22 145.98,-484.86 137.62,-475.58"/>
<polygon fill="grey" stroke="grey" stroke-width="2" points="140.19,-473.2 130.89,-468.1 134.98,-477.88 140.19,-473.2"/>
</g>
</g>
</svg>
